<svg width="25" height="18" viewBox="0 0 25 18" fill="none" xmlns="http://www.w3.org/2000/svg">
<path fill-rule="evenodd" clip-rule="evenodd" d="M24.2456 0.5055C24.0815 0.340927 23.8586 0.248436 23.6261 0.248436C23.3937 0.248436 23.1708 0.340927 23.0066 0.5055L7.87613 15.6377L1.49563 9.2555C1.2743 9.03417 0.95171 8.94774 0.649373 9.02875C0.347036 9.10976 0.110883 9.34591 0.0298725 9.64825C-0.0511384 9.95058 0.0352992 10.2732 0.256625 10.4945L7.25663 17.4945C7.42078 17.6591 7.64368 17.7516 7.87613 17.7516C8.10857 17.7516 8.33147 17.6591 8.49563 17.4945L24.2456 1.7445C24.4102 1.58034 24.5027 1.35745 24.5027 1.125C24.5027 0.892552 24.4102 0.669658 24.2456 0.5055Z" fill="#00ADB3"/>
</svg>
