<svg width="15" height="9" viewBox="0 0 15 9" fill="none" xmlns="http://www.w3.org/2000/svg">
<path fill-rule="evenodd" clip-rule="evenodd" d="M13.0346 0.234629L7.20103 6.06983L1.36743 0.234629C1.16507 0.0322736 0.870134 -0.0467551 0.593712 0.027312C0.31729 0.101379 0.101379 0.31729 0.027312 0.593712C-0.0467551 0.870134 0.0322736 1.16507 0.234629 1.36743L6.63463 7.76743C6.78472 7.9179 6.98851 8.00246 7.20103 8.00246C7.41355 8.00246 7.61734 7.9179 7.76743 7.76743L14.1674 1.36743C14.3698 1.16507 14.4488 0.870134 14.3747 0.593712C14.3007 0.31729 14.0848 0.101379 13.8083 0.027312C13.5319 -0.0467551 13.237 0.0322736 13.0346 0.234629Z" fill="#475976"/>
</svg>
