<svg width="9" height="16" viewBox="0 0 9 16" fill="none" xmlns="http://www.w3.org/2000/svg">
<path fill-rule="evenodd" clip-rule="evenodd" d="M1.0336 14.9665C1.18369 15.117 1.38748 15.2015 1.6 15.2015C1.81252 15.2015 2.01631 15.117 2.1664 14.9665L8.5664 8.5665C8.71687 8.41641 8.80143 8.21262 8.80143 8.0001C8.80143 7.78758 8.71687 7.58379 8.5664 7.4337L2.1664 1.0337C1.96404 0.831346 1.6691 0.752317 1.39268 0.826384C1.11626 0.900451 0.900349 1.11636 0.826282 1.39278C0.752215 1.66921 0.831244 1.96415 1.0336 2.1665L6.8688 8.0001L1.0336 13.8337C0.883132 13.9838 0.798569 14.1876 0.798569 14.4001C0.798569 14.6126 0.883132 14.8164 1.0336 14.9665Z" fill="#293754"/>
</svg>
