<svg width="24" height="24" viewBox="0 0 24 24" fill="none" xmlns="http://www.w3.org/2000/svg">
<circle cx="12" cy="12" r="12" fill="#E6ECF2"/>
<path fill-rule="evenodd" clip-rule="evenodd" d="M17.2855 6.71439C17.1568 6.58542 16.9822 6.51294 16.8 6.51294C16.6178 6.51294 16.4432 6.58542 16.3145 6.71439L12 11.0303L7.68549 6.71439C7.41737 6.44627 6.98265 6.44627 6.71452 6.71439C6.4464 6.98252 6.4464 7.41724 6.71452 7.68537L11.0304 11.9999L6.71452 16.3144C6.4464 16.5825 6.4464 17.0172 6.71452 17.2854C6.98265 17.5535 7.41737 17.5535 7.68549 17.2854L12 12.9695L16.3145 17.2854C16.488 17.4588 16.7408 17.5266 16.9777 17.4631C17.2146 17.3996 17.3997 17.2145 17.4632 16.9776C17.5267 16.7406 17.4589 16.4878 17.2855 16.3144L12.9696 11.9999L17.2855 7.68537C17.4145 7.55672 17.4869 7.38204 17.4869 7.19988C17.4869 7.01772 17.4145 6.84304 17.2855 6.71439Z" fill="#1B2A44"/>
</svg>
