<svg width="170" height="32" viewBox="0 0 170 32" fill="none" xmlns="http://www.w3.org/2000/svg">
<path d="M56.5723 15.1055L61.6855 7.01172H66.3613L57.9121 19.3574L56.2852 27H52.1426L53.7695 19.3574L50.543 7.01172H54.8086L56.5723 15.1055ZM74.127 17.4844C74.127 15.6888 73.4753 14.791 72.1719 14.791C71.4883 14.791 70.873 15.069 70.3262 15.625C69.7884 16.181 69.3464 16.9967 69 18.0723C68.6628 19.1478 68.4941 20.2552 68.4941 21.3945C68.4941 23.0807 69.1777 23.9238 70.5449 23.9238C71.2285 23.9238 71.8438 23.6458 72.3906 23.0898C72.9375 22.5247 73.3613 21.7454 73.6621 20.752C73.972 19.7493 74.127 18.6602 74.127 17.4844ZM78.2695 17.4844C78.2695 19.4076 77.946 21.112 77.2988 22.5977C76.6608 24.0833 75.7357 25.2363 74.5234 26.0566C73.3112 26.8678 71.8711 27.2734 70.2031 27.2734C68.4258 27.2734 67.0039 26.7402 65.9375 25.6738C64.8802 24.5983 64.3516 23.1719 64.3516 21.3945C64.3516 19.4531 64.6751 17.7259 65.3223 16.2129C65.9785 14.6908 66.9219 13.515 68.1523 12.6855C69.3828 11.847 70.8229 11.4277 72.4727 11.4277C74.2591 11.4277 75.6719 11.9655 76.7109 13.041C77.75 14.1165 78.2695 15.5977 78.2695 17.4844ZM83.082 11.7148H87.1973L85.3242 20.6426C85.1784 21.2624 85.1055 21.8047 85.1055 22.2695C85.1055 23.3906 85.5977 23.9512 86.582 23.9512C87.4206 23.9512 88.1816 23.4316 88.8652 22.3926C89.5488 21.3535 90.0866 19.9043 90.4785 18.0449L91.8184 11.7148H95.9336L92.6934 27H89.5488L89.8359 24.1699H89.6855C88.3639 26.2389 86.7689 27.2734 84.9004 27.2734C83.6426 27.2734 82.681 26.8997 82.0156 26.1523C81.3503 25.3958 81.0176 24.3066 81.0176 22.8848C81.0176 22.0371 81.127 21.0664 81.3457 19.9727L83.082 11.7148ZM107.938 11.4277C108.475 11.4277 108.913 11.4779 109.25 11.5781L108.348 15.543C107.938 15.3971 107.482 15.3242 106.98 15.3242C105.923 15.3242 104.993 15.7435 104.191 16.582C103.398 17.4115 102.833 18.6055 102.496 20.1641L101.047 27H96.9316L100.172 11.7148H103.316L103.029 14.5449H103.18C104.501 12.4668 106.087 11.4277 107.938 11.4277ZM120.584 10.2246C119.381 10.2246 118.296 10.5938 117.33 11.332C116.373 12.0703 115.603 13.1595 115.02 14.5996C114.436 16.0397 114.145 17.5801 114.145 19.2207C114.145 20.7428 114.454 21.873 115.074 22.6113C115.703 23.3496 116.701 23.7188 118.068 23.7188C119.399 23.7188 120.939 23.3678 122.689 22.666V26.2207C120.876 26.9225 119.053 27.2734 117.221 27.2734C114.906 27.2734 113.105 26.5944 111.82 25.2363C110.535 23.8691 109.893 21.9368 109.893 19.4395C109.893 17.0514 110.367 14.8548 111.314 12.8496C112.262 10.8353 113.529 9.30859 115.115 8.26953C116.701 7.22135 118.524 6.69727 120.584 6.69727C121.723 6.69727 122.735 6.80208 123.619 7.01172C124.503 7.21224 125.451 7.58594 126.463 8.13281L124.85 11.5508C123.883 11.013 123.086 10.6576 122.457 10.4844C121.828 10.3112 121.204 10.2246 120.584 10.2246ZM130.906 27.2734C129.566 27.2734 128.509 26.7904 127.734 25.8242C126.969 24.849 126.586 23.4863 126.586 21.7363C126.586 19.9316 126.914 18.2135 127.57 16.582C128.227 14.9414 129.088 13.6745 130.154 12.7812C131.221 11.8789 132.392 11.4277 133.668 11.4277C134.552 11.4277 135.313 11.6191 135.951 12.002C136.598 12.3848 137.1 12.9408 137.455 13.6699H137.564L138.344 11.7148H141.516L138.262 27H135.186L135.377 25.0176H135.268C134.046 26.5215 132.592 27.2734 130.906 27.2734ZM132.52 23.9512C133.148 23.9512 133.755 23.6458 134.338 23.0352C134.921 22.4245 135.391 21.5996 135.746 20.5605C136.102 19.5124 136.279 18.3275 136.279 17.0059C136.279 16.3587 136.102 15.8255 135.746 15.4062C135.4 14.9779 134.939 14.7637 134.365 14.7637C133.745 14.7637 133.153 15.0918 132.588 15.748C132.032 16.4043 131.585 17.2702 131.248 18.3457C130.92 19.4212 130.756 20.4876 130.756 21.5449C130.756 22.347 130.906 22.9486 131.207 23.3496C131.517 23.7507 131.954 23.9512 132.52 23.9512ZM153.52 11.4277C154.057 11.4277 154.495 11.4779 154.832 11.5781L153.93 15.543C153.52 15.3971 153.064 15.3242 152.562 15.3242C151.505 15.3242 150.576 15.7435 149.773 16.582C148.98 17.4115 148.415 18.6055 148.078 20.1641L146.629 27H142.514L145.754 11.7148H148.898L148.611 14.5449H148.762C150.083 12.4668 151.669 11.4277 153.52 11.4277ZM163.035 14.3945C162.233 14.3945 161.477 14.7591 160.766 15.4883C160.055 16.2174 159.59 17.1061 159.371 18.1543H159.986C161.399 18.1543 162.497 17.9355 163.281 17.498C164.074 17.0514 164.471 16.4499 164.471 15.6934C164.471 14.8275 163.992 14.3945 163.035 14.3945ZM160.793 27.2734C158.879 27.2734 157.393 26.7585 156.336 25.7285C155.279 24.6986 154.75 23.2448 154.75 21.3672C154.75 19.4805 155.124 17.7624 155.871 16.2129C156.628 14.6543 157.648 13.4694 158.934 12.6582C160.219 11.8379 161.673 11.4277 163.295 11.4277C164.908 11.4277 166.166 11.8014 167.068 12.5488C167.971 13.2871 168.422 14.3034 168.422 15.5977C168.422 17.3021 167.661 18.6191 166.139 19.5488C164.617 20.4694 162.443 20.9297 159.617 20.9297H158.92L158.893 21.2168V21.4902C158.893 22.3197 159.125 22.9759 159.59 23.459C160.064 23.9329 160.738 24.1699 161.613 24.1699C162.406 24.1699 163.126 24.0833 163.773 23.9102C164.421 23.737 165.204 23.4316 166.125 22.9941V26.0977C164.557 26.8815 162.78 27.2734 160.793 27.2734Z" fill="#0093A6"/>
<path fill-rule="evenodd" clip-rule="evenodd" d="M0 16C0 8.2747 6.2747 2 14 2C21.7253 2 28 8.2747 28 16C28 23.7253 21.7253 30 14 30C6.2747 30 0 23.7253 0 16ZM18.8314 9.28243C18.4409 8.8919 17.8077 8.8919 17.4172 9.28243L7.28197 19.4176C6.89145 19.8082 6.89145 20.4413 7.28197 20.8318L9.16759 22.7175C9.55812 23.108 10.1913 23.108 10.5818 22.7175L20.717 12.5823C21.1075 12.1917 21.1075 11.5586 20.717 11.168L18.8314 9.28243Z" fill="#0093A6"/>
</svg>
