<svg width="24" height="24" viewBox="0 0 24 24" fill="none" xmlns="http://www.w3.org/2000/svg">
<path fill-rule="evenodd" clip-rule="evenodd" d="M11.9662 23.9999C17.6326 24.0156 22.5376 20.0652 23.7301 14.5256C24.9225 8.98604 22.0773 3.36733 16.9063 1.05015C11.7353 -1.26702 5.64811 0.349021 2.30734 4.92594C-1.03344 9.50285 -0.717133 15.793 3.06594 20.0116C5.33262 22.5434 8.56799 23.9932 11.9662 23.9999ZM3.65463 5.22412C4.70538 5.8066 5.82547 6.25408 6.98833 6.55593C6.49435 8.13791 6.21583 9.77926 6.16029 11.4356H1.22436C1.35392 9.15951 2.20516 6.98382 3.65463 5.22412ZM11.9662 1.26459C12.7799 1.26459 14.3031 2.98169 15.3813 5.69197C14.2546 5.89817 13.1116 6.0011 11.9662 5.99949C10.8209 6.0011 9.67778 5.89817 8.55115 5.69197C9.62928 2.98169 11.1525 1.26459 11.9662 1.26459ZM11.9662 7.19609C13.2516 7.19627 14.534 7.07123 15.7952 6.82275C16.2632 8.31811 16.5276 9.86969 16.5814 11.4356H7.35571C7.40793 9.86991 7.67074 8.31834 8.13708 6.82275C9.39829 7.07123 10.6807 7.19627 11.9662 7.19609ZM20.2777 5.22412C21.7271 6.98382 22.5784 9.15951 22.7079 11.4356H17.772C17.7165 9.77926 17.4379 8.13791 16.944 6.55593C18.1068 6.25408 19.2269 5.8066 20.2777 5.22412ZM20.2777 18.8438C19.2269 18.2613 18.1068 17.8138 16.944 17.512C17.4379 15.93 17.7165 14.2886 17.772 12.6322H22.7079C22.5784 14.9084 21.7271 17.0841 20.2777 18.8438ZM11.9662 22.8033C11.1525 22.8033 9.62928 21.0862 8.55115 18.3759C10.8091 17.9627 13.1233 17.9627 15.3813 18.3759C14.3031 21.0862 12.7799 22.8033 11.9662 22.8033ZM11.9662 16.8718C10.6807 16.8716 9.39832 16.9966 8.13711 17.2451C7.66915 15.7498 7.40472 14.1982 7.35096 12.6322H16.5719C16.5181 14.1982 16.2537 15.7498 15.7857 17.2451C14.5276 16.9973 13.2484 16.8722 11.9662 16.8718ZM6.16029 12.6322C6.21583 14.2886 6.49435 15.93 6.98833 17.512C5.82547 17.8138 4.70538 18.2613 3.65463 18.8438C2.20516 17.0841 1.35392 14.9084 1.22436 12.6322H6.16029ZM4.4851 19.746C5.40358 19.2675 6.37454 18.8972 7.37845 18.6428C7.90208 20.0579 8.66058 21.3747 9.62205 22.5377C7.68654 22.0966 5.91001 21.1307 4.4875 19.746H4.4851ZM14.3054 22.5377C15.2669 21.3747 16.0254 20.0579 16.549 18.6428C17.5529 18.8972 18.5239 19.2675 19.4424 19.746C18.0198 21.1307 16.2433 22.0966 14.3078 22.5377H14.3054ZM19.4448 4.32188C18.5263 4.80043 17.5554 5.17066 16.5515 5.42514C16.0278 4.00995 15.2693 2.69319 14.3079 1.53021C16.2442 1.97091 18.0216 2.93684 19.4448 4.32188ZM9.6245 1.53021C8.66303 2.69319 7.90453 4.00995 7.38089 5.42514C6.37698 5.17066 5.40602 4.80043 4.48754 4.32188C5.91072 2.93684 7.68813 1.97091 9.6245 1.53021Z" fill="#293754"/>
</svg>
