<svg width="20" height="28" viewBox="0 0 20 28" fill="none" xmlns="http://www.w3.org/2000/svg">
<path fill-rule="evenodd" clip-rule="evenodd" d="M16.9552 6.9762C16.9544 3.12276 13.8301 -0.000515288 9.97667 6.3767e-08C6.12323 0.000515543 2.99974 3.12463 3 6.97807C3.00026 10.8315 6.12416 13.9552 9.9776 13.9552C13.8298 13.9506 16.9513 10.8285 16.9552 6.9762ZM0 27.2986V20.9804C0.00288109 20.3017 0.330184 19.6653 0.8806 19.2682C3.49804 17.55 6.58928 16.6979 9.7174 16.8322H9.7594C12.8967 16.7042 15.9961 17.555 18.6284 19.2668C19.1845 19.6626 19.5159 20.302 19.5188 20.9846V27.2986C19.5188 27.6852 19.2054 27.9986 18.8188 27.9986H0.7C0.313401 27.9986 0 27.6852 0 27.2986ZM1.701 20.405C1.51239 20.5358 1.39992 20.7508 1.4 20.9804V26.5986H18.1202V20.9846C18.1206 20.7535 18.0069 20.5372 17.8164 20.4064C15.4212 18.8636 12.6056 18.1038 9.7594 18.2322H9.7188C6.88453 18.0983 4.07983 18.8583 1.701 20.405ZM9.97853 1.40002C6.89829 1.39951 4.40077 3.89598 4.4 6.97622C4.40309 10.0556 6.89823 12.5514 9.9776 12.5552C13.0578 12.5552 15.5549 10.0583 15.5552 6.97809C15.5555 3.89785 13.0588 1.40054 9.97853 1.40002Z" fill="#475976"/>
</svg>
