<svg width="106" height="32" viewBox="0 0 106 32" fill="none" xmlns="http://www.w3.org/2000/svg">
<path d="M43.3165 9.6189C45.957 9.6189 48.126 7.48137 48.126 4.80945C48.126 2.16897 45.9884 0 43.3165 0C40.676 0 38.5071 2.13753 38.5071 4.80945C38.5071 7.44993 40.6446 9.6189 43.3165 9.6189Z" fill="#293754"/>
<path d="M24.0472 0C20.7152 0 18.7663 3.83498 14.4283 3.83498C10.0904 3.83498 8.14149 0 4.80945 0C2.16897 0 0 2.13753 0 4.80945C0 7.44993 2.16897 9.6189 4.80945 9.6189C8.14149 9.6189 10.0904 5.78392 14.4283 5.78392C18.7663 5.78392 20.7152 9.6189 24.0472 9.6189C26.6877 9.6189 28.8567 7.48137 28.8567 4.80945C28.8567 2.13753 26.7192 0 24.0472 0Z" fill="#293754"/>
<path d="M0.0314941 22.067H1.10026L1.16313 23.3558C1.4146 22.9157 1.79182 22.57 2.26333 22.3185C2.73484 22.067 3.23779 21.9413 3.77218 21.9413C4.74664 21.9727 5.56393 22.2871 6.19262 22.9157C6.82131 23.5444 7.13565 24.3932 7.13565 25.4305C7.13565 26.4993 6.82131 27.348 6.19262 27.9767C5.56393 28.6054 4.74664 28.9511 3.70931 28.9511C3.17493 28.9511 2.70341 28.8254 2.2319 28.6054C1.76038 28.3853 1.4146 28.0395 1.16313 27.568V31.9688H0.062928V22.067H0.0314941ZM5.31246 27.2537C5.75254 26.8136 5.97258 26.2164 5.97258 25.4619C5.97258 24.7075 5.75254 24.1103 5.31246 23.7016C4.87238 23.2615 4.30656 23.0415 3.58357 23.0415C2.86058 23.0415 2.3262 23.2615 1.88612 23.733C1.44604 24.2046 1.226 24.7704 1.226 25.4619C1.226 26.1535 1.44604 26.7193 1.88612 27.1908C2.3262 27.6623 2.89202 27.8824 3.58357 27.8824C4.30656 27.9138 4.87238 27.6938 5.31246 27.2537Z" fill="#293754"/>
<path d="M9.30473 22.8841C9.96485 22.224 10.8136 21.8782 11.8195 21.8782C12.8568 21.8782 13.7055 22.1926 14.3656 22.8527C15.0258 23.5128 15.3401 24.3615 15.3401 25.3989C15.3401 26.4048 14.9943 27.2535 14.3342 27.9136C13.6741 28.5737 12.8254 28.8881 11.8195 28.8881C10.8136 28.8881 9.96485 28.5737 9.30473 27.9136C8.6446 27.2535 8.29883 26.4362 8.29883 25.3989C8.29883 24.393 8.6446 23.5443 9.30473 22.8841ZM13.5169 23.6386C13.0454 23.167 12.4796 22.947 11.8195 22.947C11.1279 22.947 10.5621 23.167 10.0906 23.6386C9.6505 24.1101 9.39903 24.7073 9.39903 25.4618C9.39903 26.1847 9.61907 26.7505 10.0591 27.2221C10.4992 27.6936 11.065 27.9136 11.7566 27.9136C12.4482 27.9136 13.014 27.6936 13.4855 27.2221C13.9256 26.782 14.177 26.1847 14.177 25.4618C14.2085 24.7073 13.9884 24.0786 13.5169 23.6386Z" fill="#293754"/>
<path d="M17.3517 22.0355L19.1749 27.5994L20.9666 22.0355H21.8782L23.67 27.5994L25.4932 22.0355H26.7191L24.3615 28.7939H23.0727L22.1611 26.2792L21.4381 23.8273L20.6837 26.2792L19.7721 28.7939H18.5147L16.1257 22.0355H17.3517Z" fill="#293754"/>
<path d="M34.0121 27.7248C33.6978 28.102 33.2577 28.4164 32.7233 28.6364C32.1889 28.8565 31.6545 28.9508 31.0887 28.9508C30.0199 28.9508 29.1712 28.6364 28.5111 27.9763C27.851 27.3476 27.5366 26.4675 27.5366 25.3987C27.5366 24.3928 27.851 23.5441 28.5111 22.884C29.1712 22.2238 30.0199 21.9095 31.0258 21.9095C32.126 21.9095 32.9748 22.2553 33.6349 22.9154C34.2636 23.6069 34.5465 24.5814 34.4207 25.8702H28.6683C28.7311 26.4675 28.9826 26.9704 29.4541 27.3476C29.9256 27.7248 30.46 27.9134 31.1201 27.9134C31.5288 27.9134 31.9374 27.8506 32.3461 27.6934C32.7547 27.5362 33.0691 27.3476 33.2891 27.0647L34.0121 27.7248ZM33.352 24.9272C33.3205 24.2671 33.1005 23.7955 32.6919 23.4183C32.2832 23.0726 31.7488 22.884 31.0573 22.884C30.46 22.884 29.9256 23.0726 29.4855 23.4183C29.0455 23.7641 28.7626 24.2671 28.6683 24.8957L33.352 24.9272Z" fill="#293754"/>
<path d="M37.0298 22.0355L37.1241 23.0414C37.5327 22.2869 38.2243 21.9097 39.1987 21.9097C39.796 21.8783 40.3304 22.0669 40.7704 22.4127L40.2675 23.3557C39.9217 23.1042 39.5131 22.9785 39.1044 22.9785C38.5386 22.9785 38.0671 23.1671 37.6899 23.5443C37.3127 23.9215 37.1241 24.393 37.1241 24.9903V28.7624H35.9924V22.004L37.0298 22.0355Z" fill="#293754"/>
<path d="M47.6544 27.7248C47.3401 28.102 46.9 28.4164 46.3656 28.6364C45.8312 28.8565 45.2968 28.9508 44.731 28.9508C43.6623 28.9508 42.8135 28.6364 42.1534 27.9763C41.4933 27.3476 41.179 26.4675 41.179 25.3987C41.179 24.3928 41.4933 23.5441 42.1534 22.884C42.8135 22.2238 43.6623 21.9095 44.6682 21.9095C45.7684 21.9095 46.6171 22.2553 47.2772 22.9154C47.9059 23.6069 48.1888 24.5814 48.0631 25.8702H42.3106C42.3735 26.4675 42.6249 26.9704 43.0964 27.3476C43.568 27.7248 44.1023 27.9134 44.7625 27.9134C45.1711 27.9134 45.5798 27.8506 45.9884 27.6934C46.3971 27.5362 46.7114 27.3476 46.9314 27.0647L47.6544 27.7248ZM46.9943 24.9272C46.9629 24.2671 46.7428 23.7955 46.3342 23.4183C45.9255 23.0726 45.3912 22.884 44.6996 22.884C44.1023 22.884 43.568 23.0726 43.1279 23.4183C42.6878 23.7641 42.4049 24.2671 42.3106 24.8957L46.9943 24.9272Z" fill="#293754"/>
<path d="M56.2675 19.2064V28.7938H55.1988L55.1359 27.5679C54.8844 28.008 54.5072 28.3537 54.0671 28.5738C53.6271 28.7938 53.1241 28.9196 52.6212 28.9196C51.6153 28.9196 50.798 28.6052 50.1693 27.9765C49.5406 27.3479 49.1948 26.4991 49.1948 25.3989C49.1948 24.2987 49.5092 23.45 50.1379 22.8213C50.7665 22.1926 51.5838 21.9097 52.5897 21.9097C53.0927 21.9097 53.5956 22.0355 54.0671 22.2555C54.5387 22.4755 54.8844 22.8213 55.1359 23.2614V19.2064H56.2675ZM52.7155 22.947C52.0239 22.947 51.4581 23.1671 51.018 23.6072C50.5779 24.0472 50.3265 24.6445 50.3265 25.3989C50.3265 26.1533 50.5465 26.7506 51.018 27.1907C51.4581 27.6308 52.0239 27.8508 52.7155 27.8508C53.407 27.8508 53.9728 27.6308 54.4129 27.1592C54.8844 26.7192 55.1045 26.1219 55.1045 25.3675C55.1045 24.6445 54.8844 24.0787 54.4129 23.6072C53.9728 23.1985 53.407 22.947 52.7155 22.947Z" fill="#293754"/>
<path d="M62.9629 23.2614C63.1829 22.8213 63.5287 22.4755 64.0316 22.2555C64.5032 22.0355 65.0061 21.9097 65.509 21.9097C66.5149 21.9097 67.3322 22.2241 67.9609 22.8213C68.5896 23.45 68.904 24.2987 68.904 25.3989C68.904 26.4991 68.5896 27.3479 67.9295 27.9765C67.2694 28.6052 66.4521 28.9196 65.4462 28.9196C64.9118 28.9196 64.4403 28.7938 64.0002 28.5738C63.5601 28.3537 63.1829 28.008 62.9314 27.5679L62.8686 28.7938H61.7998V19.2064H62.9314V23.2614H62.9629ZM63.7173 23.67C63.2458 24.1415 63.0257 24.7074 63.0257 25.4304C63.0257 26.1533 63.2458 26.7506 63.7173 27.2221C64.1888 27.6936 64.7546 27.9137 65.4147 27.9137C66.1063 27.9137 66.6721 27.6936 67.1122 27.2535C67.5523 26.8135 67.8038 26.2162 67.8038 25.4618C67.8038 24.7074 67.5837 24.1101 67.1122 23.67C66.6721 23.23 66.1063 23.0099 65.4147 23.0099C64.7232 22.9785 64.1574 23.1985 63.7173 23.67Z" fill="#293754"/>
<path d="M72.1417 32H70.9472L72.3617 28.7308L69.627 22.0668H70.8843L72.2046 25.5874L72.959 27.5049L73.682 25.5874L75.1594 22.0668H76.3853L72.1417 32Z" fill="#293754"/>
<path d="M86.4759 28.825L86.4445 27.5991C86.193 28.0392 85.8472 28.385 85.3757 28.605C84.9042 28.825 84.4327 28.9508 83.9612 28.9508C82.9553 28.9508 82.138 28.6364 81.4779 27.9763C80.8178 27.3476 80.5034 26.4675 80.5034 25.3987C80.5034 24.3299 80.8492 23.4812 81.5093 22.8525C82.1694 22.2238 82.9867 21.9095 83.9926 21.9095C84.527 21.9095 84.9985 22.0352 85.47 22.2553C85.9415 22.4753 86.2873 22.8211 86.5074 23.2612V22.0352H87.6076V28.7936L86.4759 28.825ZM84.0241 23.0097C83.3325 23.0097 82.7667 23.2297 82.2952 23.7012C81.8237 24.1413 81.6036 24.7386 81.6036 25.493C81.6036 26.2474 81.8237 26.8447 82.2952 27.2848C82.7667 27.7563 83.3325 27.9763 84.0241 27.9763C84.4641 27.9763 84.8728 27.882 85.2186 27.6934C85.5643 27.5048 85.8472 27.2848 86.0044 26.9704C86.193 26.6875 86.3188 26.3417 86.4131 25.9959C86.5074 25.6502 86.5074 25.3044 86.4131 24.9272C86.3188 24.5814 86.193 24.2671 86.0044 23.9527C85.8158 23.6698 85.5643 23.4183 85.2186 23.2297C84.8728 23.0726 84.4956 22.9783 84.0241 23.0097Z" fill="#293754"/>
<path d="M96.3147 19.2064V28.7938H95.2459L95.183 27.5679C94.9315 28.008 94.5543 28.3537 94.1143 28.5738C93.6742 28.7938 93.1712 28.9196 92.6683 28.9196C91.6624 28.9196 90.8451 28.6052 90.2164 27.9765C89.5877 27.3479 89.2419 26.4991 89.2419 25.3989C89.2419 24.2987 89.5563 23.45 90.185 22.8213C90.8137 22.1926 91.631 21.9097 92.6369 21.9097C93.1398 21.9097 93.6427 22.0355 94.1143 22.2555C94.5858 22.4755 94.9315 22.8213 95.183 23.2614V19.2064H96.3147ZM92.7312 22.947C92.0396 22.947 91.4738 23.1671 91.0337 23.6072C90.5936 24.0472 90.3421 24.6445 90.3421 25.3989C90.3421 26.1533 90.5622 26.7506 91.0337 27.1907C91.4738 27.6308 92.0396 27.8508 92.7312 27.8508C93.4227 27.8508 93.9885 27.6308 94.4286 27.1592C94.9001 26.7192 95.1202 26.1219 95.1202 25.3675C95.1202 24.6445 94.9001 24.0787 94.4286 23.6072C93.9885 23.1985 93.4227 22.947 92.7312 22.947Z" fill="#293754"/>
<path d="M103.922 28.825L103.891 27.5991C103.639 28.0392 103.293 28.385 102.822 28.605C102.35 28.825 101.879 28.9508 101.407 28.9508C100.401 28.9508 99.584 28.6364 98.9239 27.9763C98.2638 27.3476 97.9495 26.4675 97.9495 25.3987C97.9495 24.3299 98.2952 23.4812 98.9554 22.8525C99.6155 22.2238 100.433 21.9095 101.439 21.9095C101.973 21.9095 102.445 22.0352 102.916 22.2553C103.388 22.4753 103.733 22.8211 103.953 23.2612V22.0352H105.054V28.7936L103.922 28.825ZM101.439 23.0097C100.747 23.0097 100.181 23.2297 99.7098 23.7012C99.2383 24.1413 99.0182 24.7386 99.0182 25.493C99.0182 26.2474 99.2383 26.8447 99.7098 27.2848C100.181 27.7563 100.747 27.9763 101.439 27.9763C101.879 27.9763 102.287 27.882 102.633 27.6934C102.979 27.5048 103.262 27.2848 103.419 26.9704C103.608 26.6875 103.733 26.3417 103.828 25.9959C103.922 25.6502 103.922 25.3044 103.828 24.9272C103.733 24.5814 103.608 24.2671 103.419 23.9527C103.23 23.6698 102.979 23.4183 102.633 23.2297C102.287 23.0411 101.91 22.9783 101.439 23.0097Z" fill="#293754"/>
</svg>
